<svg width="211" height="211" viewBox="0 0 211 211" fill="none" xmlns="http://www.w3.org/2000/svg">
<rect width="211" height="211" rx="24" fill="#EDEDED"/>
<mask id="mask0_972_106" style="mask-type:luminance" maskUnits="userSpaceOnUse" x="55" y="55" width="101" height="101">
<path d="M55.5 55.5H155.5V155.5H55.5V55.5Z" fill="white"/>
</mask>
<g mask="url(#mask0_972_106)">
<path fill-rule="evenodd" clip-rule="evenodd" d="M105.5 55.5C77.875 55.5 55.5 76.137 55.5 101.616C55.5 122.023 69.8125 139.259 89.6875 145.369C92.1875 145.773 93.125 144.389 93.125 143.179C93.125 142.083 93.0625 138.452 93.0625 134.589C80.5 136.722 77.25 131.765 76.25 129.171C75.6875 127.845 73.25 123.752 71.125 122.657C69.375 121.792 66.875 119.659 71.0625 119.602C75 119.544 77.8125 122.945 78.75 124.329C83.25 131.304 90.4375 129.344 93.3125 128.133C93.75 125.136 95.0625 123.118 96.5 121.965C85.375 120.812 73.75 116.835 73.75 99.1952C73.75 94.18 75.6875 90.0296 78.875 86.8014C78.375 85.6485 76.625 80.9216 79.375 74.5806C79.375 74.5806 83.5625 73.3701 93.125 79.3075C97.125 78.2699 101.375 77.7511 105.625 77.7511C109.875 77.7511 114.125 78.2699 118.125 79.3075C127.687 73.3124 131.875 74.5806 131.875 74.5806C134.625 80.9216 132.875 85.6485 132.375 86.8014C135.563 90.0296 137.5 94.1224 137.5 99.1952C137.5 116.892 125.812 120.812 114.687 121.965C116.5 123.406 118.062 126.173 118.062 130.497C118.062 136.665 118 141.622 118 143.179C118 144.389 118.937 145.83 121.437 145.369C131.363 142.278 139.988 136.394 146.099 128.546C152.209 120.697 155.497 111.279 155.5 101.616C155.5 76.137 133.125 55.5 105.5 55.5Z" fill="black"/>
</g>
</svg>
