<svg width="211" height="211" viewBox="0 0 211 211" fill="none" xmlns="http://www.w3.org/2000/svg">
<rect width="211" height="211" rx="24" fill="#68ACEC"/>
<path d="M84.4167 75.4912C84.4156 77.4781 83.5365 79.3833 81.9729 80.7875C80.4094 82.1918 78.2893 82.9801 76.0792 82.9791C73.869 82.9781 71.7498 82.1879 70.1878 80.7822C68.6258 79.3766 67.7489 77.4706 67.75 75.4837C67.7511 73.4968 68.6301 71.5917 70.1937 70.1874C71.7573 68.7832 73.8774 67.9949 76.0875 67.9959C78.2976 67.9968 80.4168 68.7871 81.9788 70.1927C83.5409 71.5984 84.4178 73.5043 84.4167 75.4912ZM84.6667 88.5266H68V135.424H84.6667V88.5266ZM111 88.5266H94.4167V135.424H110.833V110.814C110.833 97.1046 130.708 95.831 130.708 110.814V135.424H147.167V105.72C147.167 82.6083 117.75 83.4698 110.833 94.8196L111 88.5266Z" fill="white"/>
</svg>
