<?xml version="1.0" standalone="no"?>
<!DOCTYPE svg PUBLIC "-//W3C//DTD SVG 20010904//EN"
 "http://www.w3.org/TR/2001/REC-SVG-20010904/DTD/svg10.dtd">
<svg version="1.0" xmlns="http://www.w3.org/2000/svg"
 width="81.000000pt" height="81.000000pt" viewBox="0 0 81.000000 81.000000"
 preserveAspectRatio="xMidYMid meet">
<metadata>
Created by potrace 1.14, written by Peter Selinger 2001-2017
</metadata>
<g transform="translate(0.000000,81.000000) scale(0.100000,-0.100000)"
fill="#000000" stroke="none">
<path d="M246 671 c-4 -5 -29 -14 -57 -20 -65 -14 -116 -38 -133 -62 -11 -16
-11 -32 0 -93 7 -40 18 -92 24 -115 9 -36 8 -45 -8 -69 -55 -77 -38 -137 60
-217 26 -22 33 -25 49 -25 5 0 8 -4 5 -9 -3 -4 6 -6 19 -3 14 2 25 0 25 -6 0
-5 7 -13 16 -16 8 -3 12 -2 9 4 -3 6 -1 10 4 10 6 0 11 -4 11 -10 0 -5 7 -7
15 -4 8 4 21 1 28 -4 8 -7 18 -7 27 -2 8 5 21 5 32 -1 10 -5 18 -7 18 -3 0 3
8 0 17 -7 13 -11 15 -11 9 -1 -6 10 -1 12 21 9 15 -2 34 1 42 7 12 9 13 8 6
-4 -7 -13 -6 -13 7 -2 13 10 17 10 21 0 4 -10 6 -10 6 0 1 6 9 12 19 12 10 0
24 6 31 13 11 10 12 9 6 -3 -7 -12 -5 -12 11 1 10 9 25 14 32 12 6 -3 12 0 12
5 0 5 11 13 25 16 16 4 23 11 19 18 -5 8 -2 9 9 5 10 -4 16 -2 14 6 -1 7 4 11
11 9 8 -1 11 2 7 8 -3 5 -3 10 2 10 10 0 31 46 36 80 5 32 -9 73 -33 95 -16
15 -17 20 -4 68 20 73 35 183 28 202 -13 33 -114 68 -230 81 -71 7 -190 8
-221 0 -13 -2 -23 -1 -23 5 0 12 -17 12 -24 0z"/>
</g>
</svg>
